<svg xmlns="http://www.w3.org/2000/svg" xmlns:svgjs="http://svgjs.dev/svgjs" xmlns:xlink="http://www.w3.org/1999/xlink" version="1.1" width="1000" height="623" viewBox="0 0 1000 623"><g transform="matrix(1,0,0,1,-0.6060606060606233,0.2522267206477409)"><svg viewBox="0 0 396 247" data-background-color="#ffffff" preserveAspectRatio="xMidYMid meet" height="623" width="1000"><g id="tight-bounds" transform="matrix(1,0,0,1,0.2400000000000091,-0.09999999999999432)"><svg viewBox="0 0 395.52 247.2" height="247.2" width="395.52"><g><svg/></g><g><svg viewBox="0 0 395.52 247.2" height="247.2" width="395.52"><mask id="a43b3727-4041-4978-859f-72dd45bc1bf5"><rect width="395.52" height="247.2" fill="white"/><g transform="matrix(1,0,0,1,0,108.41877801239697)" id="clone"><svg viewBox="0 0 395.52 30.362443975206045" height="30.362443975206045" width="395.52"><g><svg viewBox="0 0 395.52 30.362443975206045" height="30.362443975206045" width="395.52"><g><svg viewBox="0 0 395.52 30.362443975206045" height="30.362443975206045" width="395.52"><g><svg viewBox="0 0 395.52 30.362443975206045" height="30.362443975206045" width="395.52"><g id="SvgjsG1186"><svg viewBox="0 0 395.52 30.362443975206045" height="30.362443975206045" width="395.52" id="SvgjsSvg1185"><g><svg viewBox="0 0 395.52 30.362443975206045" height="30.362443975206045" width="395.52"><g transform="matrix(1,0,0,1,0,0)"><svg width="395.52" viewBox="-0.2999999523162842 -43.70000076293945 734.97998046875 57.349998474121094" height="30.362443975206045" data-palette-color="#dac0a3"><path d="M19.85-35.7Q24.8-35.7 28.58-33.73 32.35-31.75 34.43-27.98 36.5-24.2 36.5-18.9L36.5-18.9 36.5 0 26.6 0 26.6-7.75 12.95-7.75 12.95 0 3.2 0 3.2-18.9Q3.2-24.2 5.28-27.98 7.35-31.75 11.13-33.73 14.9-35.7 19.85-35.7L19.85-35.7ZM12.95-15.4L26.6-15.4 26.6-19.75Q26.6-23.6 24.75-25.55 22.9-27.5 19.8-27.5L19.8-27.5Q16.65-27.5 14.8-25.55 12.95-23.6 12.95-19.75L12.95-19.75 12.95-15.4ZM56.6 0.45Q52.1 0.45 48.55-1.35 45-3.15 43.02-6.35 41.05-9.55 41.05-13.6L41.05-13.6Q41.05-17.65 43.02-20.83 45-24 48.55-25.78 52.1-27.55 56.6-27.55L56.6-27.55Q61.2-27.55 64.55-25.58 67.9-23.6 69.3-20.1L69.3-20.1 61.95-16.35Q60.1-20 56.55-20L56.55-20Q54-20 52.32-18.3 50.65-16.6 50.65-13.6L50.65-13.6Q50.65-10.55 52.32-8.83 54-7.1 56.55-7.1L56.55-7.1Q60.1-7.1 61.95-10.75L61.95-10.75 69.3-7Q67.9-3.5 64.55-1.53 61.2 0.45 56.6 0.45L56.6 0.45ZM87.9-7.75L90.25-1.1Q89.05-0.35 87.32 0.05 85.6 0.45 83.65 0.45L83.65 0.45Q78.35 0.45 75.52-2.15 72.7-4.75 72.7-9.9L72.7-9.9 72.7-33.15 82.2-33.15 82.2-26.1 88.35-26.1 88.35-19 82.2-19 82.2-10Q82.2-8.5 82.95-7.7 83.7-6.9 85-6.9L85-6.9Q86.65-6.9 87.9-7.75L87.9-7.75ZM112.24-27.1L121.74-27.1 121.74 0 112.69 0 112.69-2.7Q110.04 0.45 104.69 0.45L104.69 0.45Q100.99 0.45 97.97-1.28 94.94-3 93.17-6.2 91.39-9.4 91.39-13.6L91.39-13.6Q91.39-17.8 93.17-20.98 94.94-24.15 97.97-25.85 100.99-27.55 104.69-27.55L104.69-27.55Q109.49-27.55 112.24-24.75L112.24-24.75 112.24-27.1ZM106.69-7.1Q109.19-7.1 110.79-8.83 112.39-10.55 112.39-13.6L112.39-13.6Q112.39-16.6 110.79-18.3 109.19-20 106.69-20L106.69-20Q104.19-20 102.59-18.3 100.99-16.6 100.99-13.6L100.99-13.6Q100.99-10.55 102.59-8.83 104.19-7.1 106.69-7.1L106.69-7.1ZM137.69 0.45Q134.29 0.45 130.99-0.33 127.69-1.1 125.69-2.35L125.69-2.35 128.54-8.85Q130.39-7.7 132.94-7.03 135.49-6.35 137.99-6.35L137.99-6.35Q140.29-6.35 141.27-6.83 142.24-7.3 142.24-8.2L142.24-8.2Q142.24-9.1 141.07-9.47 139.89-9.85 137.34-10.2L137.34-10.2Q134.09-10.6 131.82-11.25 129.54-11.9 127.89-13.65 126.24-15.4 126.24-18.55L126.24-18.55Q126.24-21.15 127.79-23.18 129.34-25.2 132.32-26.38 135.29-27.55 139.44-27.55L139.44-27.55Q142.39-27.55 145.29-26.95 148.19-26.35 150.14-25.25L150.14-25.25 147.29-18.8Q143.69-20.8 139.49-20.8L139.49-20.8Q137.24-20.8 136.19-20.28 135.14-19.75 135.14-18.9L135.14-18.9Q135.14-17.95 136.29-17.57 137.44-17.2 140.09-16.8L140.09-16.8Q143.44-16.3 145.64-15.65 147.84-15 149.47-13.28 151.09-11.55 151.09-8.45L151.09-8.45Q151.09-5.9 149.54-3.88 147.99-1.85 144.97-0.7 141.94 0.45 137.69 0.45L137.69 0.45ZM187.64 0.7Q182.14 0.7 177.76-1.63 173.39-3.95 170.89-8.1 168.39-12.25 168.39-17.5L168.39-17.5Q168.39-22.75 170.89-26.9 173.39-31.05 177.76-33.38 182.14-35.7 187.64-35.7L187.64-35.7Q192.44-35.7 196.29-34 200.14-32.3 202.69-29.1L202.69-29.1 196.39-23.4Q192.99-27.5 188.14-27.5L188.14-27.5Q185.29-27.5 183.06-26.25 180.84-25 179.61-22.73 178.39-20.45 178.39-17.5L178.39-17.5Q178.39-14.55 179.61-12.28 180.84-10 183.06-8.75 185.29-7.5 188.14-7.5L188.14-7.5Q192.99-7.5 196.39-11.6L196.39-11.6 202.69-5.9Q200.14-2.7 196.29-1 192.44 0.7 187.64 0.7L187.64 0.7ZM224.93-27.1L234.43-27.1 234.43 0 225.38 0 225.38-2.7Q222.73 0.45 217.38 0.45L217.38 0.45Q213.68 0.45 210.66-1.28 207.63-3 205.86-6.2 204.08-9.4 204.08-13.6L204.08-13.6Q204.08-17.8 205.86-20.98 207.63-24.15 210.66-25.85 213.68-27.55 217.38-27.55L217.38-27.55Q222.18-27.55 224.93-24.75L224.93-24.75 224.93-27.1ZM219.38-7.1Q221.88-7.1 223.48-8.83 225.08-10.55 225.08-13.6L225.08-13.6Q225.08-16.6 223.48-18.3 221.88-20 219.38-20L219.38-20Q216.88-20 215.28-18.3 213.68-16.6 213.68-13.6L213.68-13.6Q213.68-10.55 215.28-8.83 216.88-7.1 219.38-7.1L219.38-7.1ZM257.58-27.55Q261.28-27.55 264.31-25.83 267.33-24.1 269.11-20.93 270.88-17.75 270.88-13.55L270.88-13.55Q270.88-9.35 269.11-6.18 267.33-3 264.31-1.28 261.28 0.45 257.58 0.45L257.58 0.45Q252.83 0.45 250.03-2.4L250.03-2.4 250.03 9.7 240.53 9.7 240.53-27.1 249.58-27.1 249.58-24.4Q252.23-27.55 257.58-27.55L257.58-27.55ZM255.58-7.1Q258.08-7.1 259.68-8.83 261.28-10.55 261.28-13.55L261.28-13.55Q261.28-16.55 259.68-18.28 258.08-20 255.58-20L255.58-20Q253.08-20 251.48-18.28 249.88-16.55 249.88-13.55L249.88-13.55Q249.88-10.55 251.48-8.83 253.08-7.1 255.58-7.1L255.58-7.1ZM275.28 0L275.28-27.1 284.78-27.1 284.78 0 275.28 0ZM280.03-30.1Q277.43-30.1 275.83-31.55 274.23-33 274.23-35.15L274.23-35.15Q274.23-37.3 275.83-38.75 277.43-40.2 280.03-40.2L280.03-40.2Q282.63-40.2 284.23-38.83 285.83-37.45 285.83-35.3L285.83-35.3Q285.83-33.05 284.23-31.58 282.63-30.1 280.03-30.1L280.03-30.1ZM306.03-7.75L308.38-1.1Q307.18-0.35 305.45 0.05 303.73 0.45 301.78 0.45L301.78 0.45Q296.48 0.45 293.65-2.15 290.83-4.75 290.83-9.9L290.83-9.9 290.83-33.15 300.33-33.15 300.33-26.1 306.48-26.1 306.48-19 300.33-19 300.33-10Q300.33-8.5 301.08-7.7 301.83-6.9 303.13-6.9L303.13-6.9Q304.78-6.9 306.03-7.75L306.03-7.75ZM331.02-27.1L340.52-27.1 340.52 0 331.47 0 331.47-2.9Q329.97-1.25 327.87-0.4 325.77 0.45 323.42 0.45L323.42 0.45Q318.17 0.45 315.05-2.65 311.92-5.75 311.92-11.95L311.92-11.95 311.92-27.1 321.42-27.1 321.42-13.5Q321.42-10.45 322.57-9.05 323.72-7.65 325.92-7.65L325.92-7.65Q328.17-7.65 329.6-9.22 331.02-10.8 331.02-14.05L331.02-14.05 331.02-27.1ZM357.17 0.45Q352.17 0.45 349.4-2.13 346.62-4.7 346.62-9.5L346.62-9.5 346.62-37.1 356.12-37.1 356.12-10Q356.12-8.5 356.9-7.7 357.67-6.9 359.07-6.9L359.07-6.9Q360.22-6.9 361.22-7.4L361.22-7.4 361.62-0.25Q359.47 0.45 357.17 0.45L357.17 0.45ZM383.67-27.1L393.17-27.1 393.17 0 384.12 0 384.12-2.7Q381.47 0.45 376.12 0.45L376.12 0.45Q372.42 0.45 369.39-1.28 366.37-3 364.59-6.2 362.82-9.4 362.82-13.6L362.82-13.6Q362.82-17.8 364.59-20.98 366.37-24.15 369.39-25.85 372.42-27.55 376.12-27.55L376.12-27.55Q380.92-27.55 383.67-24.75L383.67-24.75 383.67-27.1ZM378.12-7.1Q380.62-7.1 382.22-8.83 383.82-10.55 383.82-13.6L383.82-13.6Q383.82-16.6 382.22-18.3 380.62-20 378.12-20L378.12-20Q375.62-20 374.02-18.3 372.42-16.6 372.42-13.6L372.42-13.6Q372.42-10.55 374.02-8.83 375.62-7.1 378.12-7.1L378.12-7.1ZM408.32-23.85Q409.77-25.7 412.09-26.63 414.42-27.55 417.42-27.55L417.42-27.55 417.42-19Q416.12-19.15 415.27-19.15L415.27-19.15Q412.22-19.15 410.49-17.5 408.77-15.85 408.77-12.45L408.77-12.45 408.77 0 399.27 0 399.27-27.1 408.32-27.1 408.32-23.85ZM435.56-6.8Q437.51-6.8 438.94-7.35 440.36-7.9 441.81-9.15L441.81-9.15 446.76-3.95Q442.91 0.45 435.26 0.45L435.26 0.45Q430.51 0.45 426.91-1.35 423.31-3.15 421.34-6.35 419.36-9.55 419.36-13.6L419.36-13.6Q419.36-17.6 421.31-20.78 423.26-23.95 426.69-25.75 430.11-27.55 434.36-27.55L434.36-27.55Q438.31-27.55 441.59-25.93 444.86-24.3 446.81-21.18 448.76-18.05 448.76-13.75L448.76-13.75 429.41-10.05Q430.96-6.8 435.56-6.8L435.56-6.8ZM434.41-20.8Q431.96-20.8 430.41-19.28 428.86-17.75 428.66-14.9L428.66-14.9 439.66-17.05Q439.16-18.75 437.76-19.78 436.36-20.8 434.41-20.8L434.41-20.8ZM463.01 0.45Q459.61 0.45 456.31-0.33 453.01-1.1 451.01-2.35L451.01-2.35 453.86-8.85Q455.71-7.7 458.26-7.03 460.81-6.35 463.31-6.35L463.31-6.35Q465.61-6.35 466.59-6.83 467.56-7.3 467.56-8.2L467.56-8.2Q467.56-9.1 466.39-9.47 465.21-9.85 462.66-10.2L462.66-10.2Q459.41-10.6 457.14-11.25 454.86-11.9 453.21-13.65 451.56-15.4 451.56-18.55L451.56-18.55Q451.56-21.15 453.11-23.18 454.66-25.2 457.64-26.38 460.61-27.55 464.76-27.55L464.76-27.55Q467.71-27.55 470.61-26.95 473.51-26.35 475.46-25.25L475.46-25.25 472.61-18.8Q469.01-20.8 464.81-20.8L464.81-20.8Q462.56-20.8 461.51-20.28 460.46-19.75 460.46-18.9L460.46-18.9Q460.46-17.95 461.61-17.57 462.76-17.2 465.41-16.8L465.41-16.8Q468.76-16.3 470.96-15.65 473.16-15 474.79-13.28 476.41-11.55 476.41-8.45L476.41-8.45Q476.41-5.9 474.86-3.88 473.31-1.85 470.29-0.7 467.26 0.45 463.01 0.45L463.01 0.45ZM495.51 0L495.51-35 512.06-35Q517.81-35 522.26-32.85 526.71-30.7 529.16-26.75 531.61-22.8 531.61-17.5L531.61-17.5Q531.61-12.2 529.16-8.25 526.71-4.3 522.26-2.15 517.81 0 512.06 0L512.06 0 495.51 0ZM505.41-7.9L511.66-7.9Q516.16-7.9 518.88-10.45 521.61-13 521.61-17.5L521.61-17.5Q521.61-22 518.88-24.55 516.16-27.1 511.66-27.1L511.66-27.1 505.41-27.1 505.41-7.9ZM536.35 0L536.35-27.1 545.85-27.1 545.85 0 536.35 0ZM541.1-30.1Q538.5-30.1 536.9-31.55 535.3-33 535.3-35.15L535.3-35.15Q535.3-37.3 536.9-38.75 538.5-40.2 541.1-40.2L541.1-40.2Q543.7-40.2 545.3-38.83 546.9-37.45 546.9-35.3L546.9-35.3Q546.9-33.05 545.3-31.58 543.7-30.1 541.1-30.1L541.1-30.1ZM572.1-27.1L581.15-27.1 581.15-4.95Q581.15 2.6 577.05 6.38 572.95 10.15 565.25 10.15L565.25 10.15Q561.25 10.15 557.75 9.25 554.25 8.35 551.8 6.6L551.8 6.6 555.25-0.05Q556.9 1.3 559.42 2.08 561.95 2.85 564.4 2.85L564.4 2.85Q568.15 2.85 569.9 1.2 571.65-0.45 571.65-3.7L571.65-3.7 571.65-4.6Q568.9-1.4 563.6-1.4L563.6-1.4Q560-1.4 556.95-3.03 553.9-4.65 552.1-7.63 550.3-10.6 550.3-14.5L550.3-14.5Q550.3-18.35 552.1-21.33 553.9-24.3 556.95-25.93 560-27.55 563.6-27.55L563.6-27.55Q569.4-27.55 572.1-23.8L572.1-23.8 572.1-27.1ZM565.85-8.95Q568.4-8.95 570.07-10.5 571.75-12.05 571.75-14.5L571.75-14.5Q571.75-16.95 570.1-18.48 568.45-20 565.85-20L565.85-20Q563.25-20 561.57-18.48 559.9-16.95 559.9-14.5L559.9-14.5Q559.9-12.05 561.6-10.5 563.3-8.95 565.85-8.95L565.85-8.95ZM587.25 0L587.25-27.1 596.75-27.1 596.75 0 587.25 0ZM592-30.1Q589.4-30.1 587.8-31.55 586.2-33 586.2-35.15L586.2-35.15Q586.2-37.3 587.8-38.75 589.4-40.2 592-40.2L592-40.2Q594.6-40.2 596.2-38.83 597.8-37.45 597.8-35.3L597.8-35.3Q597.8-33.05 596.2-31.58 594.6-30.1 592-30.1L592-30.1ZM617.99-7.75L620.34-1.1Q619.14-0.35 617.42 0.05 615.69 0.45 613.74 0.45L613.74 0.45Q608.44 0.45 605.62-2.15 602.79-4.75 602.79-9.9L602.79-9.9 602.79-33.15 612.29-33.15 612.29-26.1 618.44-26.1 618.44-19 612.29-19 612.29-10Q612.29-8.5 613.04-7.7 613.79-6.9 615.09-6.9L615.09-6.9Q616.74-6.9 617.99-7.75L617.99-7.75ZM642.34-27.1L651.84-27.1 651.84 0 642.79 0 642.79-2.7Q640.14 0.45 634.79 0.45L634.79 0.45Q631.09 0.45 628.07-1.28 625.04-3 623.27-6.2 621.49-9.4 621.49-13.6L621.49-13.6Q621.49-17.8 623.27-20.98 625.04-24.15 628.07-25.85 631.09-27.55 634.79-27.55L634.79-27.55Q639.59-27.55 642.34-24.75L642.34-24.75 642.34-27.1ZM636.79-7.1Q639.29-7.1 640.89-8.83 642.49-10.55 642.49-13.6L642.49-13.6Q642.49-16.6 640.89-18.3 639.29-20 636.79-20L636.79-20Q634.29-20 632.69-18.3 631.09-16.6 631.09-13.6L631.09-13.6Q631.09-10.55 632.69-8.83 634.29-7.1 636.79-7.1L636.79-7.1ZM668.49 0.45Q663.49 0.45 660.71-2.13 657.94-4.7 657.94-9.5L657.94-9.5 657.94-37.1 667.44-37.1 667.44-10Q667.44-8.5 668.21-7.7 668.99-6.9 670.39-6.9L670.39-6.9Q671.54-6.9 672.54-7.4L672.54-7.4 672.94-0.25Q670.79 0.45 668.49 0.45L668.49 0.45ZM690.34-6.8Q692.29-6.8 693.71-7.35 695.14-7.9 696.59-9.15L696.59-9.15 701.54-3.95Q697.69 0.45 690.04 0.45L690.04 0.45Q685.29 0.45 681.69-1.35 678.09-3.15 676.11-6.35 674.14-9.55 674.14-13.6L674.14-13.6Q674.14-17.6 676.09-20.78 678.04-23.95 681.46-25.75 684.89-27.55 689.14-27.55L689.14-27.55Q693.09-27.55 696.36-25.93 699.64-24.3 701.59-21.18 703.54-18.05 703.54-13.75L703.54-13.75 684.19-10.05Q685.74-6.8 690.34-6.8L690.34-6.8ZM689.19-20.8Q686.74-20.8 685.19-19.28 683.64-17.75 683.44-14.9L683.44-14.9 694.44-17.05Q693.94-18.75 692.54-19.78 691.14-20.8 689.19-20.8L689.19-20.8ZM717.78 0.45Q714.38 0.45 711.08-0.33 707.78-1.1 705.78-2.35L705.78-2.35 708.63-8.85Q710.48-7.7 713.03-7.03 715.58-6.35 718.08-6.35L718.08-6.35Q720.38-6.35 721.36-6.83 722.33-7.3 722.33-8.2L722.33-8.2Q722.33-9.1 721.16-9.47 719.98-9.85 717.43-10.2L717.43-10.2Q714.18-10.6 711.91-11.25 709.63-11.9 707.98-13.65 706.33-15.4 706.33-18.55L706.33-18.55Q706.33-21.15 707.88-23.18 709.43-25.2 712.41-26.38 715.38-27.55 719.53-27.55L719.53-27.55Q722.48-27.55 725.38-26.95 728.28-26.35 730.23-25.25L730.23-25.25 727.38-18.8Q723.78-20.8 719.58-20.8L719.58-20.8Q717.33-20.8 716.28-20.28 715.23-19.75 715.23-18.9L715.23-18.9Q715.23-17.95 716.38-17.57 717.53-17.2 720.18-16.8L720.18-16.8Q723.53-16.3 725.73-15.65 727.93-15 729.56-13.28 731.18-11.55 731.18-8.45L731.18-8.45Q731.18-5.9 729.63-3.88 728.08-1.85 725.06-0.7 722.03 0.45 717.78 0.45L717.78 0.45Z" opacity="1" transform="matrix(1,0,0,1,0,0)" fill="black" class="wordmark-text-0" id="SvgjsPath1184" stroke-width="6" stroke="black" stroke-linejoin="round"/></svg></g></svg></g></svg></g></svg></g></svg></g></svg></g></svg></g></mask><g mask="url(#a43b3727-4041-4978-859f-72dd45bc1bf5)"><g><path d="M59.075 60.261c11.485 0 21.612 2.285 30.382 6.856 8.747 4.594 15.533 11.264 20.359 20.011 4.803 8.77 7.204 19.303 7.204 31.6v0 65.775h-34.454v-26.971h-47.504v26.971h-33.932v-65.775c0-12.297 2.413-22.83 7.239-31.6 4.803-8.747 11.589-15.417 20.359-20.011 8.747-4.571 18.863-6.856 30.347-6.856zM35.062 130.908h47.504v-15.138c0-8.932-2.146-15.661-6.438-20.185-4.292-4.524-10.035-6.786-17.227-6.787v0c-7.308 0-13.109 2.262-17.401 6.787-4.292 4.524-6.438 11.253-6.438 20.185v0zM201.066 186.939c-12.761 0-24.21-2.703-34.349-8.109-10.162-5.383-18.143-12.888-23.944-22.516-5.8-9.628-8.7-20.533-8.7-32.714v0c0-12.181 2.9-23.085 8.7-32.714 5.8-9.628 13.781-17.146 23.944-22.551 10.139-5.383 21.589-8.074 34.349-8.074v0c11.137 0 21.171 1.972 30.104 5.916 8.932 3.944 16.357 9.628 22.273 17.053v0l-21.925 19.837c-7.888-9.512-17.459-14.269-28.712-14.269v0c-6.612 0-12.494 1.45-17.644 4.35-5.174 2.9-9.176 6.984-12.007 12.251-2.854 5.29-4.281 11.357-4.28 18.201v0c0 6.844 1.427 12.9 4.28 18.167 2.831 5.29 6.833 9.385 12.007 12.285 5.151 2.9 11.032 4.35 17.644 4.35v0c11.253 0 20.823-4.756 28.712-14.269v0l21.925 19.837c-5.916 7.424-13.341 13.109-22.273 17.053-8.932 3.944-18.967 5.916-30.104 5.916zM268.756 184.503v-121.806h57.597c13.341 0 25.173 2.494 35.497 7.482 10.325 4.988 18.329 12.065 24.014 21.229 5.684 9.164 8.526 19.895 8.526 32.192v0c0 12.297-2.842 23.027-8.526 32.192-5.684 9.164-13.689 16.241-24.014 21.229-10.325 4.988-22.157 7.482-35.497 7.482v0zM303.209 157.01h21.751c10.441 0 18.816-2.958 25.127-8.875 6.334-5.916 9.501-14.095 9.501-24.535v0c0-10.441-3.167-18.619-9.501-24.535-6.311-5.916-14.686-8.874-25.127-8.875v0h-21.751z" fill="#dac0a3" fill-rule="nonzero" stroke="none" stroke-width="1" stroke-linecap="butt" stroke-linejoin="miter" stroke-miterlimit="10" stroke-dasharray="" stroke-dashoffset="0" font-family="none" font-weight="none" font-size="none" text-anchor="none" style="mix-blend-mode: normal" data-fill-palette-color="tertiary"/></g></g><g transform="matrix(1,0,0,1,0,108.41877801239697)"><svg viewBox="0 0 395.52 30.362443975206045" height="30.362443975206045" width="395.52"><g><svg viewBox="0 0 395.52 30.362443975206045" height="30.362443975206045" width="395.52"><g><svg viewBox="0 0 395.52 30.362443975206045" height="30.362443975206045" width="395.52"><g><svg viewBox="0 0 395.52 30.362443975206045" height="30.362443975206045" width="395.52"><g id="textblocktransform"><svg viewBox="0 0 395.52 30.362443975206045" height="30.362443975206045" width="395.52" id="textblock"><g><svg viewBox="0 0 395.52 30.362443975206045" height="30.362443975206045" width="395.52"><g transform="matrix(1,0,0,1,0,0)"><svg width="395.52" viewBox="-0.2999999523162842 -43.70000076293945 734.97998046875 57.349998474121094" height="30.362443975206045" data-palette-color="#dac0a3"><path d="M19.85-35.7Q24.8-35.7 28.58-33.73 32.35-31.75 34.43-27.98 36.5-24.2 36.5-18.9L36.5-18.9 36.5 0 26.6 0 26.6-7.75 12.95-7.75 12.95 0 3.2 0 3.2-18.9Q3.2-24.2 5.28-27.98 7.35-31.75 11.13-33.73 14.9-35.7 19.85-35.7L19.85-35.7ZM12.95-15.4L26.6-15.4 26.6-19.75Q26.6-23.6 24.75-25.55 22.9-27.5 19.8-27.5L19.8-27.5Q16.65-27.5 14.8-25.55 12.95-23.6 12.95-19.75L12.95-19.75 12.95-15.4ZM56.6 0.45Q52.1 0.45 48.55-1.35 45-3.15 43.02-6.35 41.05-9.55 41.05-13.6L41.05-13.6Q41.05-17.65 43.02-20.83 45-24 48.55-25.78 52.1-27.55 56.6-27.55L56.6-27.55Q61.2-27.55 64.55-25.58 67.9-23.6 69.3-20.1L69.3-20.1 61.95-16.35Q60.1-20 56.55-20L56.55-20Q54-20 52.32-18.3 50.65-16.6 50.65-13.6L50.65-13.6Q50.65-10.55 52.32-8.83 54-7.1 56.55-7.1L56.55-7.1Q60.1-7.1 61.95-10.75L61.95-10.75 69.3-7Q67.9-3.5 64.55-1.53 61.2 0.45 56.6 0.45L56.6 0.45ZM87.9-7.75L90.25-1.1Q89.05-0.35 87.32 0.05 85.6 0.45 83.65 0.45L83.65 0.45Q78.35 0.45 75.52-2.15 72.7-4.75 72.7-9.9L72.7-9.9 72.7-33.15 82.2-33.15 82.2-26.1 88.35-26.1 88.35-19 82.2-19 82.2-10Q82.2-8.5 82.95-7.7 83.7-6.9 85-6.9L85-6.9Q86.65-6.9 87.9-7.75L87.9-7.75ZM112.24-27.1L121.74-27.1 121.74 0 112.69 0 112.69-2.7Q110.04 0.45 104.69 0.45L104.69 0.45Q100.99 0.45 97.97-1.28 94.94-3 93.17-6.2 91.39-9.4 91.39-13.6L91.39-13.6Q91.39-17.8 93.17-20.98 94.94-24.15 97.97-25.85 100.99-27.55 104.69-27.55L104.69-27.55Q109.49-27.55 112.24-24.75L112.24-24.75 112.24-27.1ZM106.69-7.1Q109.19-7.1 110.79-8.83 112.39-10.55 112.39-13.6L112.39-13.6Q112.39-16.6 110.79-18.3 109.19-20 106.69-20L106.69-20Q104.19-20 102.59-18.3 100.99-16.6 100.99-13.6L100.99-13.6Q100.99-10.55 102.59-8.83 104.19-7.1 106.69-7.1L106.69-7.1ZM137.69 0.45Q134.29 0.45 130.99-0.33 127.69-1.1 125.69-2.35L125.69-2.35 128.54-8.85Q130.39-7.7 132.94-7.03 135.49-6.35 137.99-6.35L137.99-6.35Q140.29-6.35 141.27-6.83 142.24-7.3 142.24-8.2L142.24-8.2Q142.24-9.1 141.07-9.47 139.89-9.85 137.34-10.2L137.34-10.2Q134.09-10.6 131.82-11.25 129.54-11.9 127.89-13.65 126.24-15.4 126.24-18.55L126.24-18.55Q126.24-21.15 127.79-23.18 129.34-25.2 132.32-26.38 135.29-27.55 139.44-27.55L139.44-27.55Q142.39-27.55 145.29-26.95 148.19-26.35 150.14-25.25L150.14-25.25 147.29-18.8Q143.69-20.8 139.49-20.8L139.49-20.8Q137.24-20.8 136.19-20.28 135.14-19.75 135.14-18.9L135.14-18.9Q135.14-17.95 136.29-17.57 137.44-17.2 140.09-16.8L140.09-16.8Q143.44-16.3 145.64-15.65 147.84-15 149.47-13.28 151.09-11.55 151.09-8.45L151.09-8.45Q151.09-5.9 149.54-3.88 147.99-1.85 144.97-0.7 141.94 0.45 137.69 0.45L137.69 0.45ZM187.64 0.7Q182.14 0.7 177.76-1.63 173.39-3.95 170.89-8.1 168.39-12.25 168.39-17.5L168.39-17.5Q168.39-22.75 170.89-26.9 173.39-31.05 177.76-33.38 182.14-35.7 187.64-35.7L187.64-35.7Q192.44-35.7 196.29-34 200.14-32.3 202.69-29.1L202.69-29.1 196.39-23.4Q192.99-27.5 188.14-27.5L188.14-27.5Q185.29-27.5 183.06-26.25 180.84-25 179.61-22.73 178.39-20.45 178.39-17.5L178.39-17.5Q178.39-14.55 179.61-12.28 180.84-10 183.06-8.75 185.29-7.5 188.14-7.5L188.14-7.5Q192.99-7.5 196.39-11.6L196.39-11.6 202.69-5.9Q200.14-2.7 196.29-1 192.44 0.7 187.64 0.7L187.64 0.7ZM224.93-27.1L234.43-27.1 234.43 0 225.38 0 225.38-2.7Q222.73 0.45 217.38 0.45L217.38 0.45Q213.68 0.45 210.66-1.28 207.63-3 205.86-6.2 204.08-9.4 204.08-13.6L204.08-13.6Q204.08-17.8 205.86-20.98 207.63-24.15 210.66-25.85 213.68-27.55 217.38-27.55L217.38-27.55Q222.18-27.55 224.93-24.75L224.93-24.75 224.93-27.1ZM219.38-7.1Q221.88-7.1 223.48-8.83 225.08-10.55 225.08-13.6L225.08-13.6Q225.08-16.6 223.48-18.3 221.88-20 219.38-20L219.38-20Q216.88-20 215.28-18.3 213.68-16.6 213.68-13.6L213.68-13.6Q213.68-10.55 215.28-8.83 216.88-7.1 219.38-7.1L219.38-7.1ZM257.58-27.55Q261.28-27.55 264.31-25.83 267.33-24.1 269.11-20.93 270.88-17.75 270.88-13.55L270.88-13.55Q270.88-9.35 269.11-6.18 267.33-3 264.31-1.28 261.28 0.45 257.58 0.45L257.58 0.45Q252.83 0.45 250.03-2.4L250.03-2.4 250.03 9.7 240.53 9.7 240.53-27.1 249.58-27.1 249.58-24.4Q252.23-27.55 257.58-27.55L257.58-27.55ZM255.58-7.1Q258.08-7.1 259.68-8.83 261.28-10.55 261.28-13.55L261.28-13.55Q261.28-16.55 259.68-18.28 258.08-20 255.58-20L255.58-20Q253.08-20 251.48-18.28 249.88-16.55 249.88-13.55L249.88-13.55Q249.88-10.55 251.48-8.83 253.08-7.1 255.58-7.1L255.58-7.1ZM275.28 0L275.28-27.1 284.78-27.1 284.78 0 275.28 0ZM280.03-30.1Q277.43-30.1 275.83-31.55 274.23-33 274.23-35.15L274.23-35.15Q274.23-37.3 275.83-38.75 277.43-40.2 280.03-40.2L280.03-40.2Q282.63-40.2 284.23-38.83 285.83-37.45 285.83-35.3L285.83-35.3Q285.83-33.05 284.23-31.58 282.63-30.1 280.03-30.1L280.03-30.1ZM306.03-7.75L308.38-1.1Q307.18-0.35 305.45 0.05 303.73 0.45 301.78 0.45L301.78 0.45Q296.48 0.45 293.65-2.15 290.83-4.75 290.83-9.9L290.83-9.9 290.83-33.15 300.33-33.15 300.33-26.1 306.48-26.1 306.48-19 300.33-19 300.33-10Q300.33-8.5 301.08-7.7 301.83-6.9 303.13-6.9L303.13-6.9Q304.78-6.9 306.03-7.75L306.03-7.75ZM331.02-27.1L340.52-27.1 340.52 0 331.47 0 331.47-2.9Q329.97-1.25 327.87-0.4 325.77 0.45 323.42 0.45L323.42 0.45Q318.17 0.45 315.05-2.65 311.92-5.75 311.92-11.95L311.92-11.95 311.92-27.1 321.42-27.1 321.42-13.5Q321.42-10.45 322.57-9.05 323.72-7.65 325.92-7.65L325.92-7.65Q328.17-7.65 329.6-9.22 331.02-10.8 331.02-14.05L331.02-14.05 331.02-27.1ZM357.17 0.45Q352.17 0.45 349.4-2.13 346.62-4.7 346.62-9.5L346.62-9.5 346.62-37.1 356.12-37.1 356.12-10Q356.12-8.5 356.9-7.7 357.67-6.9 359.07-6.9L359.07-6.9Q360.22-6.9 361.22-7.4L361.22-7.4 361.62-0.25Q359.47 0.45 357.17 0.45L357.17 0.45ZM383.67-27.1L393.17-27.1 393.17 0 384.12 0 384.12-2.7Q381.47 0.45 376.12 0.45L376.12 0.45Q372.42 0.45 369.39-1.28 366.37-3 364.59-6.2 362.82-9.4 362.82-13.6L362.82-13.6Q362.82-17.8 364.59-20.98 366.37-24.15 369.39-25.85 372.42-27.55 376.12-27.55L376.12-27.55Q380.92-27.55 383.67-24.75L383.67-24.75 383.67-27.1ZM378.12-7.1Q380.62-7.1 382.22-8.83 383.82-10.55 383.82-13.6L383.82-13.6Q383.82-16.6 382.22-18.3 380.62-20 378.12-20L378.12-20Q375.62-20 374.02-18.3 372.42-16.6 372.42-13.6L372.42-13.6Q372.42-10.55 374.02-8.83 375.62-7.1 378.12-7.1L378.12-7.1ZM408.32-23.85Q409.77-25.7 412.09-26.63 414.42-27.55 417.42-27.55L417.42-27.55 417.42-19Q416.12-19.15 415.27-19.15L415.27-19.15Q412.22-19.15 410.49-17.5 408.77-15.85 408.77-12.45L408.77-12.45 408.77 0 399.27 0 399.27-27.1 408.32-27.1 408.32-23.85ZM435.56-6.8Q437.51-6.8 438.94-7.35 440.36-7.9 441.81-9.15L441.81-9.15 446.76-3.95Q442.91 0.45 435.26 0.45L435.26 0.45Q430.51 0.45 426.91-1.35 423.31-3.15 421.34-6.35 419.36-9.55 419.36-13.6L419.36-13.6Q419.36-17.6 421.31-20.78 423.26-23.95 426.69-25.75 430.11-27.55 434.36-27.55L434.36-27.55Q438.31-27.55 441.59-25.93 444.86-24.3 446.81-21.18 448.76-18.05 448.76-13.75L448.76-13.75 429.41-10.05Q430.96-6.8 435.56-6.8L435.56-6.8ZM434.41-20.8Q431.96-20.8 430.41-19.28 428.86-17.75 428.66-14.9L428.66-14.9 439.66-17.05Q439.16-18.75 437.76-19.78 436.36-20.8 434.41-20.8L434.41-20.8ZM463.01 0.45Q459.61 0.45 456.31-0.33 453.01-1.1 451.01-2.35L451.01-2.35 453.86-8.85Q455.71-7.7 458.26-7.03 460.81-6.35 463.31-6.35L463.31-6.35Q465.61-6.35 466.59-6.83 467.56-7.3 467.56-8.2L467.56-8.2Q467.56-9.1 466.39-9.47 465.21-9.85 462.66-10.2L462.66-10.2Q459.41-10.6 457.14-11.25 454.86-11.9 453.21-13.65 451.56-15.4 451.56-18.55L451.56-18.55Q451.56-21.15 453.11-23.18 454.66-25.2 457.64-26.38 460.61-27.55 464.76-27.55L464.76-27.55Q467.71-27.55 470.61-26.95 473.51-26.35 475.46-25.25L475.46-25.25 472.61-18.8Q469.01-20.8 464.81-20.8L464.81-20.8Q462.56-20.8 461.51-20.28 460.46-19.75 460.46-18.9L460.46-18.9Q460.46-17.95 461.61-17.57 462.76-17.2 465.41-16.8L465.41-16.8Q468.76-16.3 470.96-15.65 473.16-15 474.79-13.28 476.41-11.55 476.41-8.45L476.41-8.45Q476.41-5.9 474.86-3.88 473.31-1.85 470.29-0.7 467.26 0.45 463.01 0.45L463.01 0.45ZM495.51 0L495.51-35 512.06-35Q517.81-35 522.26-32.85 526.71-30.7 529.16-26.75 531.61-22.8 531.61-17.5L531.61-17.5Q531.61-12.2 529.16-8.25 526.71-4.3 522.26-2.15 517.81 0 512.06 0L512.06 0 495.51 0ZM505.41-7.9L511.66-7.9Q516.16-7.9 518.88-10.45 521.61-13 521.61-17.5L521.61-17.5Q521.61-22 518.88-24.55 516.16-27.1 511.66-27.1L511.66-27.1 505.41-27.1 505.41-7.9ZM536.35 0L536.35-27.1 545.85-27.1 545.85 0 536.35 0ZM541.1-30.1Q538.5-30.1 536.9-31.55 535.3-33 535.3-35.15L535.3-35.15Q535.3-37.3 536.9-38.75 538.5-40.2 541.1-40.2L541.1-40.2Q543.7-40.2 545.3-38.83 546.9-37.45 546.9-35.3L546.9-35.3Q546.9-33.05 545.3-31.58 543.7-30.1 541.1-30.1L541.1-30.1ZM572.1-27.1L581.15-27.1 581.15-4.95Q581.15 2.6 577.05 6.38 572.95 10.15 565.25 10.15L565.25 10.15Q561.25 10.15 557.75 9.25 554.25 8.35 551.8 6.6L551.8 6.6 555.25-0.05Q556.9 1.3 559.42 2.08 561.95 2.85 564.4 2.85L564.4 2.85Q568.15 2.85 569.9 1.2 571.65-0.45 571.65-3.7L571.65-3.7 571.65-4.6Q568.9-1.4 563.6-1.4L563.6-1.4Q560-1.4 556.95-3.03 553.9-4.65 552.1-7.63 550.3-10.6 550.3-14.5L550.3-14.5Q550.3-18.35 552.1-21.33 553.9-24.3 556.95-25.93 560-27.55 563.6-27.55L563.6-27.55Q569.4-27.55 572.1-23.8L572.1-23.8 572.1-27.1ZM565.85-8.95Q568.4-8.95 570.07-10.5 571.75-12.05 571.75-14.5L571.75-14.5Q571.75-16.95 570.1-18.48 568.45-20 565.85-20L565.85-20Q563.25-20 561.57-18.48 559.9-16.95 559.9-14.5L559.9-14.5Q559.9-12.05 561.6-10.5 563.3-8.95 565.85-8.95L565.85-8.95ZM587.25 0L587.25-27.1 596.75-27.1 596.75 0 587.25 0ZM592-30.1Q589.4-30.1 587.8-31.55 586.2-33 586.2-35.15L586.2-35.15Q586.2-37.3 587.8-38.75 589.4-40.2 592-40.2L592-40.2Q594.6-40.2 596.2-38.83 597.8-37.45 597.8-35.3L597.8-35.3Q597.8-33.05 596.2-31.58 594.6-30.1 592-30.1L592-30.1ZM617.99-7.75L620.34-1.1Q619.14-0.35 617.42 0.05 615.69 0.45 613.74 0.45L613.74 0.45Q608.44 0.45 605.62-2.15 602.79-4.75 602.79-9.9L602.79-9.9 602.79-33.15 612.29-33.15 612.29-26.1 618.44-26.1 618.44-19 612.29-19 612.29-10Q612.29-8.5 613.04-7.7 613.79-6.9 615.09-6.9L615.09-6.9Q616.74-6.9 617.99-7.75L617.99-7.75ZM642.34-27.1L651.84-27.1 651.84 0 642.79 0 642.79-2.7Q640.14 0.45 634.79 0.45L634.79 0.45Q631.09 0.45 628.07-1.28 625.04-3 623.27-6.2 621.49-9.4 621.49-13.6L621.49-13.6Q621.49-17.8 623.27-20.98 625.04-24.15 628.07-25.85 631.09-27.55 634.79-27.55L634.79-27.55Q639.59-27.55 642.34-24.75L642.34-24.75 642.34-27.1ZM636.79-7.1Q639.29-7.1 640.89-8.83 642.49-10.55 642.49-13.6L642.49-13.6Q642.49-16.6 640.89-18.3 639.29-20 636.79-20L636.79-20Q634.29-20 632.69-18.3 631.09-16.6 631.09-13.6L631.09-13.6Q631.09-10.55 632.69-8.83 634.29-7.1 636.79-7.1L636.79-7.1ZM668.49 0.45Q663.49 0.45 660.71-2.13 657.94-4.7 657.94-9.5L657.94-9.5 657.94-37.1 667.44-37.1 667.44-10Q667.44-8.5 668.21-7.7 668.99-6.9 670.39-6.9L670.39-6.9Q671.54-6.9 672.54-7.4L672.54-7.4 672.94-0.25Q670.79 0.45 668.49 0.45L668.49 0.45ZM690.34-6.8Q692.29-6.8 693.71-7.35 695.14-7.9 696.59-9.15L696.59-9.15 701.54-3.95Q697.69 0.45 690.04 0.45L690.04 0.45Q685.29 0.45 681.69-1.35 678.09-3.15 676.11-6.35 674.14-9.55 674.14-13.6L674.14-13.6Q674.14-17.6 676.09-20.78 678.04-23.95 681.46-25.75 684.89-27.55 689.14-27.55L689.14-27.55Q693.09-27.55 696.36-25.93 699.64-24.3 701.59-21.18 703.54-18.05 703.54-13.75L703.54-13.75 684.19-10.05Q685.74-6.8 690.34-6.8L690.34-6.8ZM689.19-20.8Q686.74-20.8 685.19-19.28 683.64-17.75 683.44-14.9L683.44-14.9 694.44-17.05Q693.94-18.75 692.54-19.78 691.14-20.8 689.19-20.8L689.19-20.8ZM717.78 0.45Q714.38 0.45 711.08-0.33 707.78-1.1 705.78-2.35L705.78-2.35 708.63-8.85Q710.48-7.7 713.03-7.03 715.58-6.35 718.08-6.35L718.08-6.35Q720.38-6.35 721.36-6.83 722.33-7.3 722.33-8.2L722.33-8.2Q722.33-9.1 721.16-9.47 719.98-9.85 717.43-10.2L717.43-10.2Q714.18-10.6 711.91-11.25 709.63-11.9 707.98-13.65 706.33-15.4 706.33-18.55L706.33-18.55Q706.33-21.15 707.88-23.18 709.43-25.2 712.41-26.38 715.38-27.55 719.53-27.55L719.53-27.55Q722.48-27.55 725.38-26.95 728.28-26.35 730.23-25.25L730.23-25.25 727.38-18.8Q723.78-20.8 719.58-20.8L719.58-20.8Q717.33-20.8 716.28-20.28 715.23-19.75 715.23-18.9L715.23-18.9Q715.23-17.95 716.38-17.57 717.53-17.2 720.18-16.8L720.18-16.8Q723.53-16.3 725.73-15.65 727.93-15 729.56-13.28 731.18-11.55 731.18-8.45L731.18-8.45Q731.18-5.9 729.63-3.88 728.08-1.85 725.06-0.7 722.03 0.45 717.78 0.45L717.78 0.45Z" opacity="1" transform="matrix(1,0,0,1,0,0)" fill="#dac0a3" class="wordmark-text-0" data-fill-palette-color="primary" id="text-0"/></svg></g></svg></g></svg></g></svg></g></svg></g></svg></g></svg></g></svg></g><defs/></svg><rect width="395.52" height="247.2" fill="none" stroke="none" visibility="hidden"/></g></svg></g></svg>